<?xml version="1.0" standalone="no"?>
<!DOCTYPE svg PUBLIC "-//W3C//DTD SVG 20010904//EN"
 "http://www.w3.org/TR/2001/REC-SVG-20010904/DTD/svg10.dtd">
<svg version="1.0" xmlns="http://www.w3.org/2000/svg"
 width="640.000000pt" height="640.000000pt" viewBox="0 0 640.000000 640.000000"
 preserveAspectRatio="xMidYMid meet">
<metadata>
Created by potrace 1.14, written by Peter Selinger 2001-2017
</metadata>
<g transform="translate(0.000000,640.000000) scale(0.100000,-0.100000)"
fill="#000000" stroke="none">
<path d="M3083 5663 c-49 -9 -71 -65 -49 -123 5 -13 -18 -15 -171 -16 -346 -3
-540 -64 -844 -265 -104 -69 -151 -109 -294 -254 -93 -95 -182 -180 -196 -189
-14 -9 -65 -30 -114 -46 -49 -16 -97 -37 -107 -46 -39 -36 -11 -87 65 -119 20
-8 37 -20 37 -25 0 -5 -22 -49 -50 -97 -67 -117 -105 -212 -124 -308 -16 -84
-39 -650 -30 -735 10 -88 15 -110 30 -125 24 -23 41 -18 89 26 l45 42 0 -42
c0 -59 26 -179 59 -273 l29 -79 -29 -68 c-71 -168 -55 -407 39 -585 44 -84
162 -209 237 -250 73 -41 192 -78 224 -71 26 5 28 2 60 -77 78 -194 176 -355
291 -480 85 -93 442 -364 463 -351 6 3 2 -6 -9 -20 -10 -15 -24 -27 -30 -27
-6 0 -23 -9 -36 -20 -14 -10 -97 -56 -184 -100 -87 -45 -166 -88 -175 -96 -17
-15 -29 -55 -84 -284 -27 -112 -115 -539 -115 -557 0 -2 493 -3 1096 -3 l1096
0 -5 28 c-29 161 -134 620 -163 714 -38 121 -45 126 -286 228 -43 18 -89 42
-102 54 -13 11 -37 29 -55 38 -17 9 -31 21 -31 27 0 5 44 40 98 77 280 195
375 280 474 429 58 86 149 260 195 373 l22 52 46 0 c52 0 153 37 227 82 66 41
170 158 213 239 44 84 72 192 81 307 7 100 -4 174 -41 266 l-26 65 42 83 c81
160 144 395 168 623 18 164 -16 334 -113 569 -24 58 -42 106 -40 106 2 0 21
-9 42 -20 64 -33 95 -4 71 68 -42 131 -163 327 -285 460 -36 39 -60 73 -54 77
5 3 10 17 10 30 0 18 -19 38 -77 82 -179 135 -355 246 -470 296 -84 37 -211
64 -376 78 l-138 12 6 28 c6 28 -8 67 -29 81 -38 25 -199 -12 -246 -57 l-27
-26 -27 44 c-14 25 -45 59 -68 76 -58 43 -199 83 -255 74z m922 -1790 c-18
-98 -47 -175 -111 -305 -24 -48 -44 -94 -44 -101 0 -8 9 -22 20 -32 18 -16 25
-17 78 -6 107 24 237 70 297 106 71 42 154 121 200 188 l32 48 6 -143 c6 -162
14 -196 90 -367 l52 -116 -1 -105 c0 -63 -6 -123 -15 -149 l-14 -45 -32 65
c-43 86 -86 145 -120 163 -61 31 -382 53 -533 36 -249 -27 -430 -80 -519 -150
-45 -36 -57 -40 -128 -46 -110 -9 -218 8 -244 38 -11 13 -18 16 -14 8 4 -8 -3
-4 -15 10 -12 14 -19 20 -16 14 3 -7 -9 -5 -29 4 -19 9 -32 19 -30 23 8 12
-83 41 -107 34 -19 -5 -20 -4 -8 5 12 9 7 10 -20 5 -27 -5 -32 -4 -20 5 12 9
9 10 -12 6 -17 -4 -28 -2 -28 5 0 7 -12 8 -32 4 -26 -5 -30 -4 -18 5 12 9 4
10 -35 6 -30 -3 -42 -2 -30 3 50 21 -232 33 -435 19 -149 -10 -204 -24 -237
-59 -39 -40 -101 -146 -113 -191 -14 -51 11 -172 42 -203 13 -12 39 -51 58
-85 41 -74 83 -120 132 -143 135 -64 553 -59 786 8 68 20 124 71 158 143 15
31 33 62 41 67 10 8 43 154 43 195 0 3 56 5 124 5 l124 0 6 -62 c8 -75 23
-123 46 -143 10 -8 25 -36 35 -62 24 -66 88 -122 160 -143 31 -9 59 -15 61
-12 3 3 -10 8 -28 12 -69 15 -136 63 -164 118 -13 24 -13 29 1 43 23 23 19 52
-20 133 -41 85 -42 101 -12 144 32 46 43 53 134 86 149 55 284 75 498 76 251
0 337 -9 375 -41 46 -39 95 -148 94 -209 -3 -145 -20 -202 -88 -282 -45 -51
-101 -78 -196 -92 -82 -13 -345 -17 -455 -8 -65 6 -67 6 -25 -5 68 -16 442
-16 515 1 116 26 176 76 235 195 34 67 66 98 72 69 13 -60 -207 -660 -316
-863 -50 -95 -138 -220 -205 -292 -103 -111 -443 -354 -477 -341 -18 7 -77 -8
-236 -59 l-126 -40 -168 56 c-168 56 -208 65 -219 46 -10 -16 -17 -13 -116 53
-244 162 -374 282 -480 442 -85 127 -122 202 -214 428 -135 332 -200 552 -211
704 -8 123 4 402 17 382 5 -8 9 -24 9 -36 0 -36 37 -66 68 -58 15 3 36 6 47 7
11 0 65 11 120 25 96 24 109 25 300 20 204 -6 341 -24 449 -58 84 -27 88 -26
80 19 -3 20 -16 47 -28 60 -40 41 -269 117 -440 147 l-38 6 78 45 c118 67 284
192 482 364 46 39 85 70 87 68 7 -7 -27 -143 -45 -178 -10 -19 -39 -63 -64
-98 -77 -105 -62 -128 77 -118 325 22 697 225 940 512 46 55 73 80 75 70 2 -8
-4 -55 -13 -103z m372 -799 c-3 -3 -12 -4 -19 -1 -8 3 -5 6 6 6 11 1 17 -2 13
-5z m71 -31 c15 -16 19 -21 7 -12 -11 9 -29 21 -40 27 -11 6 -14 12 -8 12 7 0
25 -12 41 -27z m-1798 -27 c98 -19 229 -59 280 -84 19 -9 41 -29 48 -45 7 -15
17 -27 23 -27 21 0 8 -82 -22 -138 -30 -57 -34 -90 -14 -148 8 -26 -33 -77
-84 -103 -66 -34 -222 -60 -420 -71 -336 -18 -444 18 -531 181 -28 53 -33 74
-37 152 -4 85 -3 93 26 152 17 35 49 79 70 98 34 31 48 36 108 42 37 3 77 8
88 10 53 10 387 -4 465 -19z m-970 -346 c52 -52 58 -62 102 -195 26 -77 67
-189 91 -250 31 -75 41 -111 32 -113 -22 -5 -147 47 -195 83 -70 51 -151 143
-182 205 -58 118 -76 330 -37 435 l21 56 56 -83 c31 -46 81 -108 112 -138z
m3233 162 c22 -54 22 -210 2 -307 -21 -101 -58 -168 -138 -252 -56 -59 -87
-82 -151 -113 -86 -40 -136 -56 -136 -42 0 5 27 78 59 163 33 85 72 199 87
253 28 96 31 102 99 171 38 39 88 97 110 128 22 30 43 53 46 49 3 -4 13 -26
22 -50z m-1856 -74 c-3 -8 -6 -5 -6 6 -1 11 2 17 5 13 3 -3 4 -12 1 -19z m-52
-70 c-12 -79 -17 -98 -26 -98 -20 0 -20 50 0 94 25 57 35 59 26 4z m420 6 c17
-41 20 -90 6 -99 -11 -6 -17 12 -26 83 -8 61 -1 66 20 16z m-378 4 c-3 -8 -6
-5 -6 6 -1 11 2 17 5 13 3 -3 4 -12 1 -19z m-116 -1587 c103 -35 188 -68 211
-81 10 -6 25 -10 33 -10 8 0 15 -8 15 -18 0 -12 -18 -24 -60 -41 -76 -29 -113
-59 -140 -116 -12 -25 -26 -48 -32 -51 -17 -11 -218 198 -218 226 0 11 89 120
99 120 4 0 45 -13 92 -29z m693 -42 l46 -51 -22 -32 c-12 -17 -63 -73 -113
-125 l-91 -94 -27 46 c-40 69 -74 105 -134 143 -73 47 -69 62 27 90 41 12 104
34 140 48 99 38 120 35 174 -25z m-525 -266 c-2 -26 -56 -167 -64 -170 -6 -2
-18 9 -27 25 -16 28 -16 28 30 90 43 56 63 74 61 55z m243 -165 c-5 -5 -20 23
-36 66 -35 100 -32 106 10 17 20 -43 31 -78 26 -83z m-153 -53 c7 -93 14 -178
17 -187 10 -33 -11 -18 -38 28 -23 37 -28 57 -28 112 0 53 29 227 36 219 1 -1
7 -78 13 -172z m55 -80 c9 -57 10 -96 5 -107 -24 -46 -29 -17 -44 247 l-4 80
15 -65 c8 -36 21 -105 28 -155z"/>
<path d="M4100 3324 c-8 -1 -67 -12 -130 -24 -150 -27 -196 -39 -310 -85 -109
-43 -128 -58 -140 -109 -10 -47 -2 -51 70 -31 131 37 268 55 460 61 188 6 199
5 297 -20 56 -14 107 -26 113 -26 34 0 -130 189 -192 221 -34 17 -118 24 -168
13z"/>
<path d="M3880 2986 c-76 -16 -154 -61 -205 -119 -50 -55 -105 -158 -105 -196
l0 -26 19 24 c17 22 23 23 67 17 27 -3 62 -9 78 -13 57 -12 16 15 -48 32 -76
21 -76 24 2 103 l46 47 7 -58 c12 -106 65 -142 196 -134 109 6 155 48 169 153
l6 52 34 -14 c20 -9 34 -10 34 -4 0 5 -5 10 -11 10 -8 0 -7 5 2 16 11 14 9 19
-11 35 -14 10 -29 19 -34 19 -5 0 -7 3 -4 6 3 3 22 -1 41 -10 33 -13 47 -12
47 4 0 13 -92 48 -154 59 -73 13 -105 13 -176 -3z m154 -102 c32 -32 13 -74
-34 -74 -47 0 -65 37 -33 72 20 22 46 23 67 2z"/>
<path d="M4280 2862 c0 -10 41 -35 47 -28 9 8 -17 36 -33 36 -8 0 -14 -3 -14
-8z"/>
<path d="M4188 2770 c-44 -46 -51 -57 -31 -49 14 5 37 18 51 29 13 11 35 20
49 20 31 0 41 27 17 45 -11 8 -21 14 -24 14 -3 0 -31 -27 -62 -59z"/>
<path d="M3663 2413 c9 -2 23 -2 30 0 6 3 -1 5 -18 5 -16 0 -22 -2 -12 -5z"/>
<path d="M2922 2137 c-16 -37 -15 -60 2 -102 12 -27 22 -35 50 -41 38 -7 66
-1 66 15 0 5 -16 12 -35 15 -40 8 -54 28 -64 95 l-8 46 -11 -28z"/>
<path d="M3450 2119 c0 -56 -21 -86 -65 -95 -19 -3 -35 -10 -35 -15 0 -16 28
-22 66 -15 29 6 38 14 51 44 16 37 12 97 -7 116 -7 7 -10 -4 -10 -35z"/>
<path d="M3010 2050 c0 -16 7 -20 30 -20 18 0 47 -12 72 -30 62 -45 136 -41
193 11 11 9 36 19 55 21 23 2 35 8 35 18 0 27 -36 22 -88 -10 -72 -45 -136
-46 -203 -1 -56 36 -94 41 -94 11z"/>
<path d="M2806 1659 c-44 -34 -48 -33 189 -48 77 -5 155 -12 173 -16 45 -10
41 7 -10 44 -46 34 -60 39 -52 17 4 -10 -16 -15 -95 -20 -111 -8 -136 -4 -151
25 -13 24 -21 24 -54 -2z"/>
<path d="M3569 1673 c-1 -5 -1 -11 0 -15 0 -4 -18 -13 -42 -19 -47 -13 -186 4
-199 24 -5 8 -21 2 -49 -18 -45 -32 -67 -65 -33 -50 11 5 84 12 164 15 80 3
153 10 163 14 10 5 23 3 32 -4 12 -10 16 -9 21 4 4 10 -3 23 -17 36 -26 21
-38 25 -40 13z"/>
<path d="M3045 1444 c99 -37 220 -37 325 -1 l75 26 -60 -7 c-79 -9 -285 -9
-355 0 l-55 8 70 -26z"/>
<path d="M2324 2985 c-75 -16 -142 -50 -213 -106 -65 -52 -51 -65 17 -16 52
38 94 61 132 72 19 5 15 0 -15 -21 -22 -15 -64 -49 -92 -75 -29 -26 -69 -53
-88 -59 -19 -6 -35 -16 -35 -21 0 -12 72 -12 105 1 21 8 32 6 53 -9 35 -24
113 -63 118 -59 1 2 -18 19 -43 38 -25 19 -52 45 -60 56 -13 20 -11 24 34 53
l48 32 6 -53 c11 -102 52 -146 144 -155 89 -9 145 4 182 44 23 24 33 44 33 66
0 46 10 77 25 77 7 0 18 7 25 15 10 13 10 19 -4 34 -29 32 -128 79 -190 90
-74 14 -105 13 -182 -4z m260 -101 c9 -3 16 -17 16 -30 0 -28 -39 -57 -64 -48
-18 7 -31 46 -22 69 5 15 42 20 70 9z"/>
<path d="M2752 2797 c-10 -11 -9 -17 3 -27 22 -18 39 0 22 24 -11 15 -15 16
-25 3z"/>
<path d="M2797 2706 c-4 -9 -3 -16 2 -16 4 0 13 -10 20 -22 11 -21 11 -21 6 7
-8 37 -20 51 -28 31z"/>
<path d="M2685 2690 c-3 -5 -2 -10 4 -10 5 0 13 5 16 10 3 6 2 10 -4 10 -5 0
-13 -4 -16 -10z"/>
</g>
</svg>
